<svg height="512" viewBox="0 0 64 64" width="512" xmlns="http://www.w3.org/2000/svg"><g id="flat"><path d="m39 45h-30l-5.039-6c-1.622-2.433-1.126-3.992 1-6l16.039-14h18z" fill="#4da19a"/><path d="m39 19h22v18h-22z" fill="#7fcac9"/><path d="m39 37h22v4h-22z" fill="#f3e56d"/><path d="m39 41h22v4h-22z" fill="#7fcac9"/><path d="m43 23h18v10h-18z" fill="#f4f4e6"/><path d="m27 25v-6h-6l-16.039 14h14.039a8 8 0 0 0 8-8z" fill="#cdeef6"/><path d="m39 41h-26l6-4h20z" fill="#fcf05a"/><path d="m31 23h4v10h-4z" fill="#cdeef6"/><path d="m46 26h2v2h-2z" fill="#50b4f8"/><path d="m50 26h2v2h-2z" fill="#50b4f8"/><path d="m9.293 40.707-2.293-2.293a2 2 0 0 1 0-2.828l1.293-1.293 1.414 1.414-1.293 1.293 2.293 2.293z" fill="#7fcac9"/></g></svg>